<?xml version="1.0" encoding="UTF-8"?>
<svg viewBox="0 0 744.09448819 1052.3622047" xmlns="http://www.w3.org/2000/svg">
 <defs>
  <radialGradient id="c" cx="111.45" cy="192.85" r="97.161" gradientTransform="matrix(-.70719 -2.0786 -1.8036 .5321 682.01 628.63)" gradientUnits="userSpaceOnUse">
   <stop stop-color="#fff" offset="0"/>
   <stop stop-color="#fbfbfb" offset=".25468"/>
   <stop stop-color="#cbcbcb" offset=".46286"/>
   <stop stop-color="#a7a7a7" offset=".55956"/>
   <stop stop-color="#aaa" offset=".70522"/>
   <stop stop-color="#fff" offset="1"/>
  </radialGradient>
  <radialGradient id="b" cx="-207.87" cy="410.73" r="37.908" gradientTransform="matrix(2.2728 .69528 -.52455 1.7028 482.96 -135.01)" gradientUnits="userSpaceOnUse">
   <stop stop-color="#fff" offset="0"/>
   <stop stop-color="#fbfbfb" offset=".18"/>
   <stop stop-color="#cbcbcb" offset=".38101"/>
   <stop stop-color="#a7a7a7" offset=".5"/>
   <stop stop-color="#aaa" offset=".57098"/>
   <stop stop-color="#fff" offset="1"/>
  </radialGradient>
  <radialGradient id="a" cx="97.428" cy="250.66" r="167.98" gradientTransform="matrix(1.9161 .34883 .5107 -2.8052 531.32 1001.8)" gradientUnits="userSpaceOnUse">
   <stop stop-color="#fff" offset="0"/>
   <stop stop-color="#fbfbfb" offset=".29046"/>
   <stop stop-color="#cbcbcb" offset=".49888"/>
   <stop stop-color="#a7a7a7" offset=".58028"/>
   <stop stop-color="#aaa" offset=".66102"/>
   <stop stop-color="#fff" offset="1"/>
  </radialGradient>
 </defs>
 <g transform="matrix(.99976 -.022 .022 .99976 -6.1852 21.556)" stroke="#000" stroke-linecap="square">
  <path d="m267.46 509.58c-11.247 22.459-27.844 43.41-55.118 29.228-14.967-7.7824-31.736-21.852-37.016-26.742-4.5882-4.2498-7.5078-10.922-4.5963-17.212 10.914-23.58 34.134-9.5405 48.601-2.8264 31.808 14.762 6.124-22.324 35.402-12.93 7.3876 2.3702 20.047 11.318 12.726 30.483z" stroke-width="9"/>
  <path d="m519.95 578.94c-8.7071 23.56-32.741 35.617-61.41 24.523-15.733-6.088-24.104-7.6326-29.89-11.912-5.028-3.719-8.6642-10.029-6.4626-16.602 8.2525-24.638 21.68-23.973 36.798-18.892 33.24 11.172 32.418-10.306 44.961-6.0141 7.3407 2.5117 21.171 9.0433 16.004 28.897z" stroke-width="9"/>
  <path d="m279.15 472.3c-43.105-17.015-70.308-6.0475-94.585 38.887l-9.601 24.806c5.2415 26.019 22.019 58.321 68.348 59.419 67.319 1.5967 109.49-15.302 120.88-33.932 4.1184-21.446-15.678-61.799-85.045-89.181z" fill="url(#c)" stroke-width="9"/>
  <path transform="matrix(.2752 -.80862 -.81144 -.27616 604.54 422.46)" d="m-172.77 412.3c0 18.407-14.618 33.33-32.649 33.33s-32.649-14.922-32.649-33.33 14.618-33.33 32.649-33.33 32.649 14.922 32.649 33.33z" fill="url(#b)" stroke-width="10.518"/>
  <g transform="translate(-436.72 51.945)">
   <path transform="matrix(-.3993 -.1539 -.15473 .40042 976.87 257.97)" d="m122.86 105.22c0 59.173-53.726 107.14-120 107.14s-120-47.969-120-107.14 53.726-107.14 120-107.14 120 47.969 120 107.14z" stroke-width="20.998"/>
   <path d="m694.21 422.49c3.0773 81.874 105.08 128.54 200.15 116.29 91.054-11.73 139.19-66.473 125.4-147.22-14.119-82.677-82.465-145.37-174.19-141.84s-154.44 90.895-151.36 172.77z" fill="url(#a)" stroke-width="9"/>
   <path transform="matrix(-.23443 .39206 .40904 .21241 407.66 668.58)" d="m-868.57 158.08c0 50.495-51.167 91.429-114.29 91.429s-114.29-40.934-114.29-91.429 51.167-91.429 114.29-91.429 114.29 40.934 114.29 91.429z" stroke-width="19.632"/>
   <path d="m889.65 475.82c0.30183 8.0304 10.119 14.18 21.913 13.726s21.121-7.3391 20.819-15.37-10.247-17.578-22.041-17.124-20.994 10.737-20.692 18.768z" stroke-width="9"/>
   <path d="m947.82 480.44s10.024 25.174-14.552 26.884c-11.635 0.81958-22.704-17.493-22.704-17.493s-3.0308 15.81-17.927 23.341c-13.291 6.7189-22.338 4.5555-31.339 0.63598-12.341-5.3736-13.38-17.282-13.38-17.282" fill="none" stroke-width="9"/>
   <path d="m991.79 388.56c31.11 20.349 37.466 53.789 22.06 71.292-11.312 12.852-25.178 21.547-42.71 13.942-25.361-11.001-17.781-26.394-38.055-41.63-17.816-13.389-21.053-35.288-11.922-47.113 10.917-14.14 39.518-16.84 70.627 3.5091z" stroke-width="9"/>
   <path d="m929.34 416.23c3.601 13.198 16.532 20.345 28.864 15.955s19.418-18.665 15.817-31.863-16.532-20.345-28.864-15.955-19.418 18.665-15.817 31.863z" fill="#fff" stroke-width="9"/>
   <path d="m961.5 406.84c-4.6654-3.0537-10.596-3.0666-20.128 5.174" fill="none" stroke-width="9"/>
   <path d="m793.76 390.46c-31.211 14.591-48.266 45.613-41.534 76.615 7.5946 34.971 49.024 45.534 72.62 34.449 16.079-7.5535 17.677-34.587 29.789-47.15 13.961-14.481 15.059-31.072 8.3056-51.319-8.1215-24.349-37.971-27.186-69.182-12.595z" stroke-width="9"/>
   <path d="m798.58 418.22c-0.79201 14.716 11.19 27.303 26.745 28.097s28.823-10.506 29.615-25.222-11.19-27.304-26.745-28.097-28.823 10.506-29.615 25.222z" fill="#fff" stroke-width="9"/>
   <path d="m843.03 423.05c-13.333-4.7912-22.039-2.355-27.477-0.21434" fill="none" stroke-width="9"/>
  </g>
  <path d="m381.57 601.1c-15.262 19.95-41.781 24.391-65.909 5.3426-13.241-10.453-20.786-14.395-25.054-20.19-3.7092-5.0353-5.325-12.136-1.2848-17.769 15.145-21.113 27.78-16.522 40.731-7.2123 28.473 20.468 34.015-0.29787 44.737 7.4987 6.275 4.5629 17.567 14.879 6.7802 32.33z" stroke-width="9"/>
  <path d="m236.43 555.56c-3.5333 24.868-24.478 41.73-54.843 36.943-16.664-2.627-25.173-2.3682-31.732-5.3291-5.7002-2.5729-10.587-7.9722-9.824-14.862 2.8612-25.826 16.126-28.012 31.977-26.239 34.849 3.8974 29.509-16.922 42.676-15.377 7.7056 0.90425 22.604 4.3667 21.747 24.864z" stroke-width="9"/>
 </g>
</svg>
